<svg xmlns="http://www.w3.org/2000/svg" viewBox="0 2.111 24 24" fill="#FFFFFF">
  <path d="M 12 6 C 15.314 6 18 8.686 18 12 C 18 14.22 16.79 16.16 15 17.2 L 15 19 C 15 19.552 14.552 20 14 20 L 10 20 C 9.448 20 9 19.552 9 19 L 9 17.2 C 7.21 16.16 6 14.22 6 12 C 6 8.686 8.686 6 12 6 M 14 21 L 14 22 C 14 22.552 13.552 23 13 23 L 11 23 C 10.448 23 10 22.552 10 22 L 10 21 L 14 21 M 11 18 L 13 18 L 13 15.87 C 14.73 15.43 16 13.86 16 12 C 16 9.791 14.209 8 12 8 C 9.791 8 8 9.791 8 12 C 8 13.86 9.27 15.43 11 15.87 L 11 18 Z"></path>
</svg>